<mxfile host="app.diagrams.net" agent="Mozilla/5.0 (Windows NT 10.0; Win64; x64) AppleWebKit/537.36 (KHTML, like Gecko) Chrome/138.0.0.0 Safari/537.36" version="28.1.0" pages="2">
  <diagram name="Page-1" id="xKvkIVZFQWv2jx4Ze0a4">
    <mxGraphModel dx="1124" dy="1796" grid="1" gridSize="10" guides="1" tooltips="1" connect="1" arrows="1" fold="1" page="1" pageScale="1" pageWidth="850" pageHeight="1100" math="0" shadow="0">
      <root>
        <mxCell id="0" />
        <mxCell id="1" parent="0" />
        <mxCell id="rYaNBO6mxP38nrqPC0ky-1" value="" style="rounded=0;whiteSpace=wrap;html=1;" vertex="1" parent="1">
          <mxGeometry x="70" y="310" width="320" height="100" as="geometry" />
        </mxCell>
        <mxCell id="tnEU3TK34sWj55XHYFoK-4" value="" style="rounded=0;whiteSpace=wrap;html=1;" vertex="1" parent="1">
          <mxGeometry x="75" y="490" width="320" height="80" as="geometry" />
        </mxCell>
        <mxCell id="YDTXTB6PS5T0qJHpgxqr-1" value="CPU cache" style="rounded=0;whiteSpace=wrap;html=1;" vertex="1" parent="1">
          <mxGeometry x="75" y="600" width="90" height="40" as="geometry" />
        </mxCell>
        <mxCell id="YDTXTB6PS5T0qJHpgxqr-2" value="CPU MMU/TLB" style="rounded=0;whiteSpace=wrap;html=1;" vertex="1" parent="1">
          <mxGeometry x="195" y="600" width="90" height="40" as="geometry" />
        </mxCell>
        <mxCell id="YDTXTB6PS5T0qJHpgxqr-3" value="SMMU" style="rounded=0;whiteSpace=wrap;html=1;" vertex="1" parent="1">
          <mxGeometry x="305" y="600" width="90" height="40" as="geometry" />
        </mxCell>
        <mxCell id="YDTXTB6PS5T0qJHpgxqr-4" value="DDR(Main Memory, RAM)" style="rounded=0;whiteSpace=wrap;html=1;" vertex="1" parent="1">
          <mxGeometry x="75" y="670" width="320" height="40" as="geometry" />
        </mxCell>
        <mxCell id="YDTXTB6PS5T0qJHpgxqr-5" value="Buddy Allocator" style="rounded=0;whiteSpace=wrap;html=1;" vertex="1" parent="1">
          <mxGeometry x="75" y="420" width="320" height="40" as="geometry" />
        </mxCell>
        <mxCell id="tnEU3TK34sWj55XHYFoK-1" value="kernel page table" style="rounded=0;whiteSpace=wrap;html=1;" vertex="1" parent="1">
          <mxGeometry x="95" y="520" width="130" height="40" as="geometry" />
        </mxCell>
        <mxCell id="tnEU3TK34sWj55XHYFoK-2" value="process page table" style="rounded=0;whiteSpace=wrap;html=1;" vertex="1" parent="1">
          <mxGeometry x="245" y="520" width="130" height="40" as="geometry" />
        </mxCell>
        <mxCell id="tnEU3TK34sWj55XHYFoK-5" value="page management" style="text;html=1;align=center;verticalAlign=middle;whiteSpace=wrap;rounded=0;" vertex="1" parent="1">
          <mxGeometry x="165" y="490" width="150" height="30" as="geometry" />
        </mxCell>
        <mxCell id="tnEU3TK34sWj55XHYFoK-6" value="&lt;span class=&quot;fontstyle0&quot;&gt;Anonymous pages&lt;/span&gt;" style="rounded=0;whiteSpace=wrap;html=1;" vertex="1" parent="1">
          <mxGeometry x="80" y="230" width="90" height="40" as="geometry" />
        </mxCell>
        <mxCell id="tnEU3TK34sWj55XHYFoK-7" value="&lt;span class=&quot;fontstyle0&quot;&gt;page cache&lt;/span&gt;" style="rounded=0;whiteSpace=wrap;html=1;" vertex="1" parent="1">
          <mxGeometry x="200" y="230" width="90" height="40" as="geometry" />
        </mxCell>
        <mxCell id="tnEU3TK34sWj55XHYFoK-8" value="&lt;span class=&quot;fontstyle0&quot;&gt;slob&lt;/span&gt;" style="rounded=0;whiteSpace=wrap;html=1;" vertex="1" parent="1">
          <mxGeometry x="80" y="350" width="60" height="40" as="geometry" />
        </mxCell>
        <mxCell id="tnEU3TK34sWj55XHYFoK-9" value="&lt;span class=&quot;fontstyle0&quot;&gt;slab&lt;/span&gt;" style="rounded=0;whiteSpace=wrap;html=1;" vertex="1" parent="1">
          <mxGeometry x="160" y="350" width="60" height="40" as="geometry" />
        </mxCell>
        <mxCell id="tnEU3TK34sWj55XHYFoK-10" value="&lt;span class=&quot;fontstyle0&quot;&gt;slub&lt;/span&gt;" style="rounded=0;whiteSpace=wrap;html=1;" vertex="1" parent="1">
          <mxGeometry x="240" y="350" width="60" height="40" as="geometry" />
        </mxCell>
        <mxCell id="tnEU3TK34sWj55XHYFoK-11" value="Memory Reclaim&amp;nbsp;" style="rounded=0;whiteSpace=wrap;html=1;" vertex="1" parent="1">
          <mxGeometry x="240" y="130" width="70" height="40" as="geometry" />
        </mxCell>
        <mxCell id="tnEU3TK34sWj55XHYFoK-12" value="Memory Compaction" style="rounded=0;whiteSpace=wrap;html=1;" vertex="1" parent="1">
          <mxGeometry x="320" y="130" width="70" height="40" as="geometry" />
        </mxCell>
        <mxCell id="tnEU3TK34sWj55XHYFoK-13" value="" style="rounded=0;whiteSpace=wrap;html=1;" vertex="1" parent="1">
          <mxGeometry x="450" y="100" width="320" height="80" as="geometry" />
        </mxCell>
        <mxCell id="tnEU3TK34sWj55XHYFoK-14" value="Swap Cache" style="rounded=0;whiteSpace=wrap;html=1;" vertex="1" parent="1">
          <mxGeometry x="470" y="130" width="80" height="40" as="geometry" />
        </mxCell>
        <mxCell id="tnEU3TK34sWj55XHYFoK-15" value="Zswap" style="rounded=0;whiteSpace=wrap;html=1;" vertex="1" parent="1">
          <mxGeometry x="560" y="130" width="80" height="40" as="geometry" />
        </mxCell>
        <mxCell id="tnEU3TK34sWj55XHYFoK-16" value="Swap Management" style="text;html=1;align=center;verticalAlign=middle;whiteSpace=wrap;rounded=0;" vertex="1" parent="1">
          <mxGeometry x="540" y="100" width="150" height="30" as="geometry" />
        </mxCell>
        <mxCell id="tnEU3TK34sWj55XHYFoK-17" value="" style="rounded=0;whiteSpace=wrap;html=1;" vertex="1" parent="1">
          <mxGeometry x="440" width="320" height="80" as="geometry" />
        </mxCell>
        <mxCell id="tnEU3TK34sWj55XHYFoK-18" value="ASLR" style="rounded=0;whiteSpace=wrap;html=1;" vertex="1" parent="1">
          <mxGeometry x="460" y="30" width="70" height="40" as="geometry" />
        </mxCell>
        <mxCell id="tnEU3TK34sWj55XHYFoK-19" value="KASAN" style="rounded=0;whiteSpace=wrap;html=1;" vertex="1" parent="1">
          <mxGeometry x="610" y="30" width="70" height="40" as="geometry" />
        </mxCell>
        <mxCell id="tnEU3TK34sWj55XHYFoK-20" value="Memory Protection" style="text;html=1;align=center;verticalAlign=middle;whiteSpace=wrap;rounded=0;" vertex="1" parent="1">
          <mxGeometry x="530" width="150" height="30" as="geometry" />
        </mxCell>
        <mxCell id="tnEU3TK34sWj55XHYFoK-21" value="CMA" style="rounded=0;whiteSpace=wrap;html=1;" vertex="1" parent="1">
          <mxGeometry x="505" y="350" width="55" height="40" as="geometry" />
        </mxCell>
        <mxCell id="tnEU3TK34sWj55XHYFoK-22" value="Kswapd?" style="rounded=0;whiteSpace=wrap;html=1;" vertex="1" parent="1">
          <mxGeometry x="660" y="130" width="80" height="40" as="geometry" />
        </mxCell>
        <mxCell id="tnEU3TK34sWj55XHYFoK-23" value="ZRAM" style="rounded=0;whiteSpace=wrap;html=1;" vertex="1" parent="1">
          <mxGeometry x="170" y="130" width="60" height="40" as="geometry" />
        </mxCell>
        <mxCell id="tnEU3TK34sWj55XHYFoK-24" value="DAMON" style="rounded=0;whiteSpace=wrap;html=1;" vertex="1" parent="1">
          <mxGeometry x="30" y="40" width="60" height="40" as="geometry" />
        </mxCell>
        <mxCell id="tnEU3TK34sWj55XHYFoK-25" value="oom killer" style="rounded=0;whiteSpace=wrap;html=1;" vertex="1" parent="1">
          <mxGeometry x="100" y="130" width="60" height="40" as="geometry" />
        </mxCell>
        <mxCell id="tnEU3TK34sWj55XHYFoK-26" value="KSM" style="rounded=0;whiteSpace=wrap;html=1;" vertex="1" parent="1">
          <mxGeometry x="20" y="130" width="60" height="40" as="geometry" />
        </mxCell>
        <mxCell id="tnEU3TK34sWj55XHYFoK-27" value="Memory Cgroup" style="rounded=0;whiteSpace=wrap;html=1;" vertex="1" parent="1">
          <mxGeometry x="320" y="70" width="70" height="40" as="geometry" />
        </mxCell>
        <mxCell id="tnEU3TK34sWj55XHYFoK-28" value="Page Fault" style="rounded=0;whiteSpace=wrap;html=1;" vertex="1" parent="1">
          <mxGeometry x="60" y="-40" width="290" height="40" as="geometry" />
        </mxCell>
        <mxCell id="tnEU3TK34sWj55XHYFoK-29" value="VMA Management" style="rounded=0;whiteSpace=wrap;html=1;" vertex="1" parent="1">
          <mxGeometry x="60" y="-90" width="290" height="40" as="geometry" />
        </mxCell>
        <mxCell id="tnEU3TK34sWj55XHYFoK-30" value="alloc_pages" style="rounded=0;whiteSpace=wrap;html=1;" vertex="1" parent="1">
          <mxGeometry x="340" y="-330" width="80" height="40" as="geometry" />
        </mxCell>
        <mxCell id="tnEU3TK34sWj55XHYFoK-31" value="vmalloc" style="rounded=0;whiteSpace=wrap;html=1;" vertex="1" parent="1">
          <mxGeometry x="270" y="-330" width="60" height="40" as="geometry" />
        </mxCell>
        <mxCell id="tnEU3TK34sWj55XHYFoK-32" value="kmalloc" style="rounded=0;whiteSpace=wrap;html=1;" vertex="1" parent="1">
          <mxGeometry x="190" y="-330" width="60" height="40" as="geometry" />
        </mxCell>
        <mxCell id="tnEU3TK34sWj55XHYFoK-33" value="ioremap" style="rounded=0;whiteSpace=wrap;html=1;" vertex="1" parent="1">
          <mxGeometry x="430" y="-330" width="80" height="40" as="geometry" />
        </mxCell>
        <mxCell id="tnEU3TK34sWj55XHYFoK-34" value="get_user_pages" style="rounded=0;whiteSpace=wrap;html=1;" vertex="1" parent="1">
          <mxGeometry x="530" y="-330" width="100" height="40" as="geometry" />
        </mxCell>
        <mxCell id="tnEU3TK34sWj55XHYFoK-35" value="Page Migration" style="rounded=0;whiteSpace=wrap;html=1;" vertex="1" parent="1">
          <mxGeometry x="230" y="70" width="70" height="40" as="geometry" />
        </mxCell>
        <mxCell id="tnEU3TK34sWj55XHYFoK-36" value="THP" style="rounded=0;whiteSpace=wrap;html=1;" vertex="1" parent="1">
          <mxGeometry x="510" y="-150" width="55" height="40" as="geometry" />
        </mxCell>
        <mxCell id="tnEU3TK34sWj55XHYFoK-37" value="RMAP" style="rounded=0;whiteSpace=wrap;html=1;" vertex="1" parent="1">
          <mxGeometry x="587.5" y="-150" width="55" height="40" as="geometry" />
        </mxCell>
        <mxCell id="tnEU3TK34sWj55XHYFoK-38" value="mmap" style="rounded=0;whiteSpace=wrap;html=1;" vertex="1" parent="1">
          <mxGeometry x="340" y="-490" width="80" height="40" as="geometry" />
        </mxCell>
        <mxCell id="tnEU3TK34sWj55XHYFoK-39" value="mlock" style="rounded=0;whiteSpace=wrap;html=1;" vertex="1" parent="1">
          <mxGeometry x="270" y="-490" width="60" height="40" as="geometry" />
        </mxCell>
        <mxCell id="tnEU3TK34sWj55XHYFoK-40" value="malloc" style="rounded=0;whiteSpace=wrap;html=1;" vertex="1" parent="1">
          <mxGeometry x="190" y="-490" width="60" height="40" as="geometry" />
        </mxCell>
        <mxCell id="tnEU3TK34sWj55XHYFoK-41" value="mremap" style="rounded=0;whiteSpace=wrap;html=1;" vertex="1" parent="1">
          <mxGeometry x="430" y="-490" width="80" height="40" as="geometry" />
        </mxCell>
        <mxCell id="tnEU3TK34sWj55XHYFoK-42" value="madvise" style="rounded=0;whiteSpace=wrap;html=1;" vertex="1" parent="1">
          <mxGeometry x="530" y="-490" width="100" height="40" as="geometry" />
        </mxCell>
        <mxCell id="tnEU3TK34sWj55XHYFoK-43" value="ION" style="rounded=0;whiteSpace=wrap;html=1;" vertex="1" parent="1">
          <mxGeometry x="160" y="-150" width="55" height="40" as="geometry" />
        </mxCell>
        <mxCell id="tnEU3TK34sWj55XHYFoK-44" value="DMA Buffer&lt;div&gt;Heap&lt;/div&gt;" style="rounded=0;whiteSpace=wrap;html=1;" vertex="1" parent="1">
          <mxGeometry x="225" y="-150" width="95" height="40" as="geometry" />
        </mxCell>
        <mxCell id="tnEU3TK34sWj55XHYFoK-45" value="vmap" style="rounded=0;whiteSpace=wrap;html=1;" vertex="1" parent="1">
          <mxGeometry x="110" y="-330" width="60" height="40" as="geometry" />
        </mxCell>
        <mxCell id="tnEU3TK34sWj55XHYFoK-46" value="Zone Management" style="rounded=0;whiteSpace=wrap;html=1;" vertex="1" parent="1">
          <mxGeometry x="75" y="180" width="85" height="40" as="geometry" />
        </mxCell>
        <mxCell id="tnEU3TK34sWj55XHYFoK-47" value="vmalloc" style="rounded=0;whiteSpace=wrap;html=1;" vertex="1" parent="1">
          <mxGeometry x="430" y="350" width="60" height="40" as="geometry" />
        </mxCell>
        <mxCell id="tnEU3TK34sWj55XHYFoK-48" value="kmalloc" style="rounded=0;whiteSpace=wrap;html=1;" vertex="1" parent="1">
          <mxGeometry x="310" y="350" width="60" height="40" as="geometry" />
        </mxCell>
        <mxCell id="rYaNBO6mxP38nrqPC0ky-2" value="小内存分配" style="text;html=1;align=center;verticalAlign=middle;whiteSpace=wrap;rounded=0;" vertex="1" parent="1">
          <mxGeometry x="155" y="310" width="150" height="30" as="geometry" />
        </mxCell>
      </root>
    </mxGraphModel>
  </diagram>
  <diagram id="z8X7JgqDKcptaMOkcgN8" name="Page-2">
    <mxGraphModel dx="1349" dy="699" grid="1" gridSize="10" guides="1" tooltips="1" connect="1" arrows="1" fold="1" page="1" pageScale="1" pageWidth="850" pageHeight="1100" math="0" shadow="0">
      <root>
        <mxCell id="0" />
        <mxCell id="1" parent="0" />
      </root>
    </mxGraphModel>
  </diagram>
</mxfile>
